<svg version="1.2" xmlns="http://www.w3.org/2000/svg" viewBox="0 0 1024 1024" width="1024" height="1024">
	<style>
		.s0 { fill: #000000 } 
		.s1 { fill: #00ff36 } 
	</style>
	<path id="Layer 1" fill-rule="evenodd" class="s0" d="m103 0h818c56.89 0 103 46.11 103 103v818c0 56.89-46.11 103-103 103h-818c-56.89 0-103-46.11-103-103v-818c0-56.89 46.11-103 103-103z"/>
	<path id=":))" class="s1" aria-label=":))"  d="m164.9 749v-94.1h78.2v94.1zm0-298.3v-94.1h78.2v94.1zm227.8-277.6h59.3q55.6 87.5 83 171.2 27.8 83.8 27.8 166.4 0 83-27.8 167.2-27.4 84.1-83 171.2h-59.3q49.3-84.9 73.4-168.7 24.5-84.1 24.5-169.7 0-85.6-24.5-168.9-24.1-83.4-73.4-168.7zm296 0h59.3q55.6 87.5 83 171.2 27.8 83.8 27.8 166.4 0 83-27.8 167.2-27.4 84.1-83 171.2h-59.3q49.3-84.9 73.4-168.7 24.5-84.1 24.5-169.7 0-85.6-24.5-168.9-24.1-83.4-73.4-168.7z"/>
</svg>